<?xml version="1.0" encoding="UTF-8" standalone="no"?>
<svg
   xmlns:dc="http://purl.org/dc/elements/1.1/"
   xmlns:cc="http://creativecommons.org/ns#"
   xmlns:rdf="http://www.w3.org/1999/02/22-rdf-syntax-ns#"
   xmlns:svg="http://www.w3.org/2000/svg"
   xmlns="http://www.w3.org/2000/svg"
   xmlns:sodipodi="http://sodipodi.sourceforge.net/DTD/sodipodi-0.dtd"
   xmlns:inkscape="http://www.inkscape.org/namespaces/inkscape"
   shape-rendering="auto"
   width="149.6106"
   text-rendering="auto"
   contentScriptType="text/ecmascript"
   color-interpolation="auto"
   color-rendering="auto"
   preserveAspectRatio="xMidYMid meet"
   font-size="12"
   viewBox="0 0 149.6106 207.55"
   image-rendering="auto"
   stroke-miterlimit="10"
   zoomAndPan="magnify"
   version="1.0"
   contentStyleType="text/css"
   font-style="normal"
   height="207.55"
   font-weight="normal"
   id="svg2"
   inkscape:version="0.48.3.1 r9886"
   sodipodi:docname="printer2-smarty-blocks-pedaco-mutex.svg"
   style="font-size:12px;font-style:normal;font-weight:normal;fill:#000000;fill-opacity:1;stroke:#000000;stroke-width:1;stroke-linecap:square;stroke-linejoin:miter;stroke-miterlimit:10;stroke-opacity:1;stroke-dasharray:none;stroke-dashoffset:0;font-family:Dialog">
  <metadata
     id="metadata548">
    <rdf:RDF>
      <cc:Work
         rdf:about="">
        <dc:format>image/svg+xml</dc:format>
        <dc:type
           rdf:resource="http://purl.org/dc/dcmitype/StillImage" />
        <dc:title />
      </cc:Work>
    </rdf:RDF>
  </metadata>
  <sodipodi:namedview
     pagecolor="#ffffff"
     bordercolor="#666666"
     borderopacity="1"
     objecttolerance="10"
     gridtolerance="10"
     guidetolerance="10"
     inkscape:pageopacity="0"
     inkscape:pageshadow="2"
     inkscape:window-width="1301"
     inkscape:window-height="744"
     id="namedview546"
     showgrid="false"
     inkscape:zoom="2.7318463"
     inkscape:cx="31.4283"
     inkscape:cy="122.01451"
     inkscape:window-x="65"
     inkscape:window-y="24"
     inkscape:window-maximized="1"
     inkscape:current-layer="svg2"
     fit-margin-top="0"
     fit-margin-left="0"
     fit-margin-right="0"
     fit-margin-bottom="0" />
  <!--Generated by the Batik Graphics2D SVG Generator-->
  <defs
     id="genericDefs">
    <defs
       id="defs1">
      <clipPath
         id="clipPath1"
         clipPathUnits="userSpaceOnUse">
        <path
           id="path9"
           d="M 9,9 622,9 622,626 9,626 9,9 z"
           inkscape:connector-curvature="0" />
      </clipPath>
      <clipPath
         id="clipPath2"
         clipPathUnits="userSpaceOnUse">
        <path
           id="path12"
           d="m 19,14 42,0 0,17 -42,0 0,-17 z"
           inkscape:connector-curvature="0" />
      </clipPath>
      <clipPath
         id="clipPath3"
         clipPathUnits="userSpaceOnUse">
        <path
           id="path15"
           d="m 9,30 613,0 0,596 L 9,626 9,30 z"
           inkscape:connector-curvature="0" />
      </clipPath>
      <clipPath
         id="clipPath4"
         clipPathUnits="userSpaceOnUse">
        <path
           id="path18"
           d="m 25,122 102,0 0,98 -102,0 0,-98 z"
           inkscape:connector-curvature="0" />
      </clipPath>
      <clipPath
         id="clipPath5"
         clipPathUnits="userSpaceOnUse">
        <path
           id="path21"
           d="m 28,147 99,0 0,17 -99,0 0,-17 z"
           inkscape:connector-curvature="0" />
      </clipPath>
      <clipPath
         id="clipPath6"
         clipPathUnits="userSpaceOnUse">
        <path
           id="path24"
           d="m 28,163 99,0 0,17 -99,0 0,-17 z"
           inkscape:connector-curvature="0" />
      </clipPath>
      <clipPath
         id="clipPath7"
         clipPathUnits="userSpaceOnUse">
        <path
           id="path27"
           d="m 47,179 64,0 0,17 -64,0 0,-17 z"
           inkscape:connector-curvature="0" />
      </clipPath>
      <clipPath
         id="clipPath8"
         clipPathUnits="userSpaceOnUse">
        <path
           id="path30"
           d="m 223,59 128,0 0,68 -128,0 0,-68 z"
           inkscape:connector-curvature="0" />
      </clipPath>
      <clipPath
         id="clipPath9"
         clipPathUnits="userSpaceOnUse">
        <path
           id="path33"
           d="m 226,69 125,0 0,17 -125,0 0,-17 z"
           inkscape:connector-curvature="0" />
      </clipPath>
      <clipPath
         id="clipPath10"
         clipPathUnits="userSpaceOnUse">
        <path
           id="path36"
           d="m 226,85 125,0 0,17 -125,0 0,-17 z"
           inkscape:connector-curvature="0" />
      </clipPath>
      <clipPath
         id="clipPath11"
         clipPathUnits="userSpaceOnUse">
        <path
           id="path39"
           d="m 242,101 95,0 0,17 -95,0 0,-17 z"
           inkscape:connector-curvature="0" />
      </clipPath>
      <clipPath
         id="clipPath12"
         clipPathUnits="userSpaceOnUse">
        <path
           id="path42"
           d="m 223,215 128,0 0,68 -128,0 0,-68 z"
           inkscape:connector-curvature="0" />
      </clipPath>
      <clipPath
         id="clipPath13"
         clipPathUnits="userSpaceOnUse">
        <path
           id="path45"
           d="m 226,225 125,0 0,17 -125,0 0,-17 z"
           inkscape:connector-curvature="0" />
      </clipPath>
      <clipPath
         id="clipPath14"
         clipPathUnits="userSpaceOnUse">
        <path
           id="path48"
           d="m 226,241 125,0 0,17 -125,0 0,-17 z"
           inkscape:connector-curvature="0" />
      </clipPath>
      <clipPath
         id="clipPath15"
         clipPathUnits="userSpaceOnUse">
        <path
           id="path51"
           d="m 246,257 87,0 0,17 -87,0 0,-17 z"
           inkscape:connector-curvature="0" />
      </clipPath>
      <clipPath
         id="clipPath16"
         clipPathUnits="userSpaceOnUse">
        <path
           id="path54"
           d="m 223,137 128,0 0,68 -128,0 0,-68 z"
           inkscape:connector-curvature="0" />
      </clipPath>
      <clipPath
         id="clipPath17"
         clipPathUnits="userSpaceOnUse">
        <path
           id="path57"
           d="m 226,147 125,0 0,17 -125,0 0,-17 z"
           inkscape:connector-curvature="0" />
      </clipPath>
      <clipPath
         id="clipPath18"
         clipPathUnits="userSpaceOnUse">
        <path
           id="path60"
           d="m 226,163 125,0 0,17 -125,0 0,-17 z"
           inkscape:connector-curvature="0" />
      </clipPath>
      <clipPath
         id="clipPath19"
         clipPathUnits="userSpaceOnUse">
        <path
           id="path63"
           d="m 242,179 95,0 0,17 -95,0 0,-17 z"
           inkscape:connector-curvature="0" />
      </clipPath>
      <clipPath
         id="clipPath20"
         clipPathUnits="userSpaceOnUse">
        <path
           id="path66"
           d="m 223,448 102,0 0,74 -102,0 0,-74 z"
           inkscape:connector-curvature="0" />
      </clipPath>
      <clipPath
         id="clipPath21"
         clipPathUnits="userSpaceOnUse">
        <path
           id="path69"
           d="m 226,461 99,0 0,17 -99,0 0,-17 z"
           inkscape:connector-curvature="0" />
      </clipPath>
      <clipPath
         id="clipPath22"
         clipPathUnits="userSpaceOnUse">
        <path
           id="path72"
           d="m 226,477 99,0 0,17 -99,0 0,-17 z"
           inkscape:connector-curvature="0" />
      </clipPath>
      <clipPath
         id="clipPath23"
         clipPathUnits="userSpaceOnUse">
        <path
           id="path75"
           d="m 244,493 66,0 0,17 -66,0 0,-17 z"
           inkscape:connector-curvature="0" />
      </clipPath>
      <clipPath
         id="clipPath24"
         clipPathUnits="userSpaceOnUse">
        <path
           id="path78"
           d="m 223,526 102,0 0,74 -102,0 0,-74 z"
           inkscape:connector-curvature="0" />
      </clipPath>
      <clipPath
         id="clipPath25"
         clipPathUnits="userSpaceOnUse">
        <path
           id="path81"
           d="m 226,539 99,0 0,17 -99,0 0,-17 z"
           inkscape:connector-curvature="0" />
      </clipPath>
      <clipPath
         id="clipPath26"
         clipPathUnits="userSpaceOnUse">
        <path
           id="path84"
           d="m 226,555 99,0 0,17 -99,0 0,-17 z"
           inkscape:connector-curvature="0" />
      </clipPath>
      <clipPath
         id="clipPath27"
         clipPathUnits="userSpaceOnUse">
        <path
           id="path87"
           d="m 244,571 66,0 0,17 -66,0 0,-17 z"
           inkscape:connector-curvature="0" />
      </clipPath>
      <clipPath
         id="clipPath28"
         clipPathUnits="userSpaceOnUse">
        <path
           id="path90"
           d="m 25,335 102,0 0,66 -102,0 0,-66 z"
           inkscape:connector-curvature="0" />
      </clipPath>
      <clipPath
         id="clipPath29"
         clipPathUnits="userSpaceOnUse">
        <path
           id="path93"
           d="m 28,344 99,0 0,17 -99,0 0,-17 z"
           inkscape:connector-curvature="0" />
      </clipPath>
      <clipPath
         id="clipPath30"
         clipPathUnits="userSpaceOnUse">
        <path
           id="path96"
           d="m 28,360 99,0 0,17 -99,0 0,-17 z"
           inkscape:connector-curvature="0" />
      </clipPath>
      <clipPath
         id="clipPath31"
         clipPathUnits="userSpaceOnUse">
        <path
           id="path99"
           d="m 58,376 42,0 0,17 -42,0 0,-17 z"
           inkscape:connector-curvature="0" />
      </clipPath>
      <clipPath
         id="clipPath32"
         clipPathUnits="userSpaceOnUse">
        <path
           id="path102"
           d="m 223,297 130,0 0,66 -130,0 0,-66 z"
           inkscape:connector-curvature="0" />
      </clipPath>
      <clipPath
         id="clipPath33"
         clipPathUnits="userSpaceOnUse">
        <path
           id="path105"
           d="m 226,306 127,0 0,17 -127,0 0,-17 z"
           inkscape:connector-curvature="0" />
      </clipPath>
      <clipPath
         id="clipPath34"
         clipPathUnits="userSpaceOnUse">
        <path
           id="path108"
           d="m 226,322 127,0 0,17 -127,0 0,-17 z"
           inkscape:connector-curvature="0" />
      </clipPath>
      <clipPath
         id="clipPath35"
         clipPathUnits="userSpaceOnUse">
        <path
           id="path111"
           d="m 260,338 62,0 0,17 -62,0 0,-17 z"
           inkscape:connector-curvature="0" />
      </clipPath>
      <clipPath
         id="clipPath36"
         clipPathUnits="userSpaceOnUse">
        <path
           id="path114"
           d="m 223,375 130,0 0,66 -130,0 0,-66 z"
           inkscape:connector-curvature="0" />
      </clipPath>
      <clipPath
         id="clipPath37"
         clipPathUnits="userSpaceOnUse">
        <path
           id="path117"
           d="m 226,384 127,0 0,17 -127,0 0,-17 z"
           inkscape:connector-curvature="0" />
      </clipPath>
      <clipPath
         id="clipPath38"
         clipPathUnits="userSpaceOnUse">
        <path
           id="path120"
           d="m 226,400 127,0 0,17 -127,0 0,-17 z"
           inkscape:connector-curvature="0" />
      </clipPath>
      <clipPath
         id="clipPath39"
         clipPathUnits="userSpaceOnUse">
        <path
           id="path123"
           d="m 255,416 72,0 0,17 -72,0 0,-17 z"
           inkscape:connector-curvature="0" />
      </clipPath>
      <clipPath
         id="clipPath40"
         clipPathUnits="userSpaceOnUse">
        <path
           id="path126"
           d="m 408,118 182,0 0,133 -182,0 0,-133 z"
           inkscape:connector-curvature="0" />
      </clipPath>
      <clipPath
         id="clipPath41"
         clipPathUnits="userSpaceOnUse">
        <path
           id="path129"
           d="m 414,124 161,0 0,17 -161,0 0,-17 z"
           inkscape:connector-curvature="0" />
      </clipPath>
      <clipPath
         id="clipPath42"
         clipPathUnits="userSpaceOnUse">
        <path
           id="path132"
           d="m 414,139 145,0 0,106 -145,0 0,-106 z"
           inkscape:connector-curvature="0" />
      </clipPath>
      <clipPath
         id="clipPath43"
         clipPathUnits="userSpaceOnUse">
        <path
           id="path135"
           d="m 408,463 172,0 0,107 -172,0 0,-107 z"
           inkscape:connector-curvature="0" />
      </clipPath>
      <clipPath
         id="clipPath44"
         clipPathUnits="userSpaceOnUse">
        <path
           id="path138"
           d="m 414,469 151,0 0,17 -151,0 0,-17 z"
           inkscape:connector-curvature="0" />
      </clipPath>
      <clipPath
         id="clipPath45"
         clipPathUnits="userSpaceOnUse">
        <path
           id="path141"
           d="m 414,484 145,0 0,80 -145,0 0,-80 z"
           inkscape:connector-curvature="0" />
      </clipPath>
      <clipPath
         id="clipPath46"
         clipPathUnits="userSpaceOnUse">
        <path
           id="path144"
           d="m 408,297 172,0 0,120 -172,0 0,-120 z"
           inkscape:connector-curvature="0" />
      </clipPath>
      <clipPath
         id="clipPath47"
         clipPathUnits="userSpaceOnUse">
        <path
           id="path147"
           d="m 414,303 151,0 0,17 -151,0 0,-17 z"
           inkscape:connector-curvature="0" />
      </clipPath>
      <clipPath
         id="clipPath48"
         clipPathUnits="userSpaceOnUse">
        <path
           id="path150"
           d="m 414,318 145,0 0,93 -145,0 0,-93 z"
           inkscape:connector-curvature="0" />
      </clipPath>
      <clipPath
         id="clipPath49"
         clipPathUnits="userSpaceOnUse">
        <path
           id="path153"
           d="m -1,-1 633,0 0,637 -633,0 0,-637 z"
           inkscape:connector-curvature="0" />
      </clipPath>
      <clipPath
         id="clipPath50"
         clipPathUnits="userSpaceOnUse">
        <path
           id="path156"
           d="m 99,218 15,0 0,19 -15,0 0,-19 z"
           inkscape:connector-curvature="0" />
      </clipPath>
      <clipPath
         id="clipPath51"
         clipPathUnits="userSpaceOnUse">
        <path
           id="path159"
           d="m 95,278 91,0 0,17 -91,0 0,-17 z"
           inkscape:connector-curvature="0" />
      </clipPath>
      <clipPath
         id="clipPath52"
         clipPathUnits="userSpaceOnUse">
        <path
           id="path162"
           d="m 207,187 19,0 0,15 -19,0 0,-15 z"
           inkscape:connector-curvature="0" />
      </clipPath>
      <clipPath
         id="clipPath53"
         clipPathUnits="userSpaceOnUse">
        <path
           id="path165"
           d="m 125,163 19,0 0,15 -19,0 0,-15 z"
           inkscape:connector-curvature="0" />
      </clipPath>
      <clipPath
         id="clipPath54"
         clipPathUnits="userSpaceOnUse">
        <path
           id="path168"
           d="m 152,480 81,0 0,17 -81,0 0,-17 z"
           inkscape:connector-curvature="0" />
      </clipPath>
      <clipPath
         id="clipPath55"
         clipPathUnits="userSpaceOnUse">
        <path
           id="path171"
           d="m 207,234 19,0 0,15 -19,0 0,-15 z"
           inkscape:connector-curvature="0" />
      </clipPath>
      <clipPath
         id="clipPath56"
         clipPathUnits="userSpaceOnUse">
        <path
           id="path174"
           d="m 86,319 15,0 0,19 -15,0 0,-19 z"
           inkscape:connector-curvature="0" />
      </clipPath>
      <clipPath
         id="clipPath57"
         clipPathUnits="userSpaceOnUse">
        <path
           id="path177"
           d="m 101,106 15,0 0,19 -15,0 0,-19 z"
           inkscape:connector-curvature="0" />
      </clipPath>
      <clipPath
         id="clipPath58"
         clipPathUnits="userSpaceOnUse">
        <path
           id="path180"
           d="m 81,399 15,0 0,19 -15,0 0,-19 z"
           inkscape:connector-curvature="0" />
      </clipPath>
    </defs>
  </defs>
  <g
     id="g5826"
     transform="translate(-200.3894,-215.45)">
    <rect
       style="font-size:15px;fill:#ffffff;stroke:none;font-family:Ubuntu"
       id="rect216"
       height="66"
       width="126"
       clip-path="url(#clipPath12)"
       y="216"
       x="224" />
    <text
       style="font-size:12px;stroke:none;font-family:Dialog"
       id="text218"
       xml:space="preserve"
       clip-path="url(#clipPath13)"
       y="238"
       font-size="12"
       x="267">«block»</text>
    <text
       style="font-size:12px;stroke:none;font-family:Dialog"
       id="text220"
       xml:space="preserve"
       clip-path="url(#clipPath14)"
       y="254"
       font-size="12"
       x="239">«alternative_OR»</text>
    <text
       style="font-size:12px;stroke:none;font-family:Dialog"
       id="text222"
       xml:space="preserve"
       clip-path="url(#clipPath15)"
       y="270"
       font-size="12"
       x="247">WifiConnector</text>
    <rect
       style="font-size:15px;fill:none;stroke-width:1.10000002;stroke-linecap:butt;font-family:Ubuntu"
       id="rect224"
       height="65"
       width="125"
       clip-path="url(#clipPath12)"
       y="216"
       x="224" />
  </g>
  <g
     id="g5833"
     transform="translate(-200.3894,-391.45)">
    <rect
       style="font-size:15px;fill:#ffffff;stroke:none;font-family:Ubuntu"
       id="rect246"
       height="72"
       width="100"
       clip-path="url(#clipPath24)"
       y="527"
       x="224" />
    <text
       style="font-size:12px;stroke:none;font-family:Dialog"
       id="text248"
       xml:space="preserve"
       clip-path="url(#clipPath25)"
       y="552"
       font-size="12"
       x="254">«block»</text>
    <text
       style="font-size:12px;stroke:none;font-family:Dialog"
       id="text250"
       xml:space="preserve"
       clip-path="url(#clipPath26)"
       y="568"
       font-size="12"
       x="246">«optional»</text>
    <text
       style="font-size:12px;stroke:none;font-family:Dialog"
       id="text252"
       xml:space="preserve"
       clip-path="url(#clipPath27)"
       y="584"
       font-size="12"
       x="245">EmgPower</text>
    <rect
       style="font-size:15px;fill:none;stroke-width:1.10000002;stroke-linecap:butt;font-family:Ubuntu"
       id="rect254"
       height="71"
       width="99"
       clip-path="url(#clipPath24)"
       y="527"
       x="224" />
  </g>
  <g
     id="g5852"
     transform="translate(-200.3894,-391.45)">
    <line
       style="fill:none;stroke:#000000;stroke-width:1.10000002;stroke-linecap:butt;stroke-dasharray:5, 5, 5, 5, 5, 5, 5, 5, 5, 5"
       id="line430"
       y2="559"
       y1="559"
       x2="202"
       x1="224"
       clip-path="url(#clipPath49)" />
    <line
       style="fill:none;stroke:#000000;stroke-width:1.10000002;stroke-linecap:butt;stroke-dasharray:5, 5, 5, 5, 5, 5, 5, 5, 5, 5"
       id="line534"
       y2="559"
       y1="559"
       x2="202"
       x1="224"
       clip-path="url(#clipPath49)" />
  </g>
  <g
     id="g5840"
     transform="translate(-140.3894,-391.45)">
    <text
       style="fill:#000000;stroke:none"
       id="text436"
       xml:space="preserve"
       clip-path="url(#clipPath54)"
       y="493"
       x="153">&lt;&lt;mutex&gt;&gt;</text>
    <text
       style="fill:#000000;stroke:none"
       id="text540"
       xml:space="preserve"
       clip-path="url(#clipPath54)"
       y="493"
       x="153">&lt;&lt;mutex&gt;&gt;</text>
  </g>
  <g
     id="g5844"
     transform="translate(-200.3894,-215.45)">
    <line
       style="fill:none;stroke:#000000;stroke-width:1.10000002;stroke-linecap:butt;stroke-dasharray:5, 5, 5, 5, 5, 5, 5, 5, 5, 5"
       id="line434"
       y2="241"
       y1="241"
       x2="224"
       x1="202"
       clip-path="url(#clipPath49)" />
    <line
       style="fill:none;stroke:#000000;stroke-width:1.10000002;stroke-linecap:butt"
       id="line438"
       y2="241"
       y1="247"
       x2="224"
       x1="208"
       clip-path="url(#clipPath55)" />
    <line
       style="fill:none;stroke:#000000;stroke-width:1.10000002;stroke-linecap:butt"
       id="line440"
       y2="235"
       y1="241"
       x2="208"
       x1="224"
       clip-path="url(#clipPath55)" />
    <line
       style="fill:none;stroke:#000000;stroke-width:1.10000002;stroke-linecap:butt;stroke-dasharray:5, 5, 5, 5, 5, 5, 5, 5, 5, 5"
       id="line538"
       y2="241"
       y1="241"
       x2="224"
       x1="202"
       clip-path="url(#clipPath49)" />
    <line
       style="fill:none;stroke:#000000;stroke-width:1.10000002;stroke-linecap:butt"
       id="line542"
       y2="241"
       y1="247"
       x2="224"
       x1="208"
       clip-path="url(#clipPath55)" />
    <line
       style="fill:none;stroke:#000000;stroke-width:1.10000002;stroke-linecap:butt"
       id="line544"
       y2="235"
       y1="241"
       x2="208"
       x1="224"
       clip-path="url(#clipPath55)" />
  </g>
  <path
     style="font-size:12px;font-style:normal;font-weight:normal;fill:none;stroke:#000000;stroke-width:1;stroke-linecap:butt;stroke-linejoin:miter;stroke-miterlimit:10;stroke-opacity:1;stroke-dasharray:6, 6;stroke-dashoffset:0;font-family:Dialog"
     d="m 0.5,29.94449 0,139.14602"
     id="path4431"
     inkscape:connector-curvature="0" />
</svg>
