<?xml version="1.0" encoding="UTF-8"?><svg xmlns="http://www.w3.org/2000/svg" xmlns:xlink="http://www.w3.org/1999/xlink" stroke-dasharray="none" shape-rendering="auto" font-family="'Dialog'" width="763" text-rendering="auto" fill-opacity="1" contentScriptType="text/ecmascript" color-interpolation="auto" color-rendering="auto" preserveAspectRatio="xMidYMid meet" font-size="12" viewBox="0 0 763 478" fill="black" stroke="black" image-rendering="auto" stroke-miterlimit="10" zoomAndPan="magnify" version="1.0" stroke-linecap="square" stroke-linejoin="miter" contentStyleType="text/css" font-style="normal" height="478" stroke-width="1" stroke-dashoffset="0" font-weight="normal" stroke-opacity="1">
<!--Generated by the Batik Graphics2D SVG Generator-->
<defs id="genericDefs"/>
<g>
<defs id="defs1">
<clipPath clipPathUnits="userSpaceOnUse" id="clipPath1">
<path d="M31 9 L744 9 L744 469 L31 469 L31 9 Z"/>
</clipPath>
<clipPath clipPathUnits="userSpaceOnUse" id="clipPath2">
<path d="M32 12 L744 12 L744 29 L32 29 L32 12 Z"/>
</clipPath>
<clipPath clipPathUnits="userSpaceOnUse" id="clipPath3">
<path d="M367 28 L409 28 L409 45 L367 45 L367 28 Z"/>
</clipPath>
<clipPath clipPathUnits="userSpaceOnUse" id="clipPath4">
<path d="M93 382 L272 382 L272 449 L93 449 L93 382 Z"/>
</clipPath>
<clipPath clipPathUnits="userSpaceOnUse" id="clipPath5">
<path d="M96 392 L272 392 L272 409 L96 409 L96 392 Z"/>
</clipPath>
<clipPath clipPathUnits="userSpaceOnUse" id="clipPath6">
<path d="M96 408 L272 408 L272 425 L96 425 L96 408 Z"/>
</clipPath>
<clipPath clipPathUnits="userSpaceOnUse" id="clipPath7">
<path d="M113 424 L258 424 L258 441 L113 441 L113 424 Z"/>
</clipPath>
<clipPath clipPathUnits="userSpaceOnUse" id="clipPath8">
<path d="M83 403 L105 403 L105 425 L83 425 L83 403 Z"/>
</clipPath>
<clipPath clipPathUnits="userSpaceOnUse" id="clipPath9">
<path d="M91 305 L270 305 L270 372 L91 372 L91 305 Z"/>
</clipPath>
<clipPath clipPathUnits="userSpaceOnUse" id="clipPath10">
<path d="M94 315 L270 315 L270 332 L94 332 L94 315 Z"/>
</clipPath>
<clipPath clipPathUnits="userSpaceOnUse" id="clipPath11">
<path d="M94 331 L270 331 L270 348 L94 348 L94 331 Z"/>
</clipPath>
<clipPath clipPathUnits="userSpaceOnUse" id="clipPath12">
<path d="M112 347 L254 347 L254 364 L112 364 L112 347 Z"/>
</clipPath>
<clipPath clipPathUnits="userSpaceOnUse" id="clipPath13">
<path d="M81 326 L103 326 L103 348 L81 348 L81 326 Z"/>
</clipPath>
<clipPath clipPathUnits="userSpaceOnUse" id="clipPath14">
<path d="M506 386 L654 386 L654 453 L506 453 L506 386 Z"/>
</clipPath>
<clipPath clipPathUnits="userSpaceOnUse" id="clipPath15">
<path d="M509 396 L654 396 L654 413 L509 413 L509 396 Z"/>
</clipPath>
<clipPath clipPathUnits="userSpaceOnUse" id="clipPath16">
<path d="M509 412 L654 412 L654 429 L509 429 L509 412 Z"/>
</clipPath>
<clipPath clipPathUnits="userSpaceOnUse" id="clipPath17">
<path d="M523 428 L642 428 L642 445 L523 445 L523 428 Z"/>
</clipPath>
<clipPath clipPathUnits="userSpaceOnUse" id="clipPath18">
<path d="M642 409 L664 409 L664 431 L642 431 L642 409 Z"/>
</clipPath>
<clipPath clipPathUnits="userSpaceOnUse" id="clipPath19">
<path d="M577 295 L736 295 L736 362 L577 362 L577 295 Z"/>
</clipPath>
<clipPath clipPathUnits="userSpaceOnUse" id="clipPath20">
<path d="M580 305 L736 305 L736 322 L580 322 L580 305 Z"/>
</clipPath>
<clipPath clipPathUnits="userSpaceOnUse" id="clipPath21">
<path d="M580 321 L736 321 L736 338 L580 338 L580 321 Z"/>
</clipPath>
<clipPath clipPathUnits="userSpaceOnUse" id="clipPath22">
<path d="M605 337 L713 337 L713 354 L605 354 L605 337 Z"/>
</clipPath>
<clipPath clipPathUnits="userSpaceOnUse" id="clipPath23">
<path d="M645 350 L667 350 L667 372 L645 372 L645 350 Z"/>
</clipPath>
<clipPath clipPathUnits="userSpaceOnUse" id="clipPath24">
<path d="M96 62 L277 62 L277 129 L96 129 L96 62 Z"/>
</clipPath>
<clipPath clipPathUnits="userSpaceOnUse" id="clipPath25">
<path d="M99 72 L277 72 L277 89 L99 89 L99 72 Z"/>
</clipPath>
<clipPath clipPathUnits="userSpaceOnUse" id="clipPath26">
<path d="M99 88 L277 88 L277 105 L99 105 L99 88 Z"/>
</clipPath>
<clipPath clipPathUnits="userSpaceOnUse" id="clipPath27">
<path d="M107 104 L271 104 L271 121 L107 121 L107 104 Z"/>
</clipPath>
<clipPath clipPathUnits="userSpaceOnUse" id="clipPath28">
<path d="M86 83 L108 83 L108 105 L86 105 L86 83 Z"/>
</clipPath>
<clipPath clipPathUnits="userSpaceOnUse" id="clipPath29">
<path d="M96 196 L277 196 L277 263 L96 263 L96 196 Z"/>
</clipPath>
<clipPath clipPathUnits="userSpaceOnUse" id="clipPath30">
<path d="M99 206 L277 206 L277 223 L99 223 L99 206 Z"/>
</clipPath>
<clipPath clipPathUnits="userSpaceOnUse" id="clipPath31">
<path d="M99 222 L277 222 L277 239 L99 239 L99 222 Z"/>
</clipPath>
<clipPath clipPathUnits="userSpaceOnUse" id="clipPath32">
<path d="M112 238 L267 238 L267 255 L112 255 L112 238 Z"/>
</clipPath>
<clipPath clipPathUnits="userSpaceOnUse" id="clipPath33">
<path d="M86 217 L108 217 L108 239 L86 239 L86 217 Z"/>
</clipPath>
<clipPath clipPathUnits="userSpaceOnUse" id="clipPath34">
<path d="M96 129 L277 129 L277 196 L96 196 L96 129 Z"/>
</clipPath>
<clipPath clipPathUnits="userSpaceOnUse" id="clipPath35">
<path d="M99 139 L277 139 L277 156 L99 156 L99 139 Z"/>
</clipPath>
<clipPath clipPathUnits="userSpaceOnUse" id="clipPath36">
<path d="M99 155 L277 155 L277 172 L99 172 L99 155 Z"/>
</clipPath>
<clipPath clipPathUnits="userSpaceOnUse" id="clipPath37">
<path d="M107 171 L271 171 L271 188 L107 188 L107 171 Z"/>
</clipPath>
<clipPath clipPathUnits="userSpaceOnUse" id="clipPath38">
<path d="M86 150 L108 150 L108 172 L86 172 L86 150 Z"/>
</clipPath>
<clipPath clipPathUnits="userSpaceOnUse" id="clipPath39">
<path d="M341 50 L694 50 L694 165 L341 165 L341 50 Z"/>
</clipPath>
<clipPath clipPathUnits="userSpaceOnUse" id="clipPath40">
<path d="M347 56 L679 56 L679 73 L347 73 L347 56 Z"/>
</clipPath>
<clipPath clipPathUnits="userSpaceOnUse" id="clipPath41">
<path d="M347 71 L627 71 L627 151 L347 151 L347 71 Z"/>
</clipPath>
<clipPath clipPathUnits="userSpaceOnUse" id="clipPath42">
<path d="M423 172 L681 172 L681 279 L423 279 L423 172 Z"/>
</clipPath>
<clipPath clipPathUnits="userSpaceOnUse" id="clipPath43">
<path d="M429 178 L666 178 L666 195 L429 195 L429 178 Z"/>
</clipPath>
<clipPath clipPathUnits="userSpaceOnUse" id="clipPath44">
<path d="M429 193 L598 193 L598 273 L429 273 L429 193 Z"/>
</clipPath>
<clipPath clipPathUnits="userSpaceOnUse" id="clipPath45">
<path d="M283 341 L497 341 L497 448 L283 448 L283 341 Z"/>
</clipPath>
<clipPath clipPathUnits="userSpaceOnUse" id="clipPath46">
<path d="M289 347 L482 347 L482 364 L289 364 L289 347 Z"/>
</clipPath>
<clipPath clipPathUnits="userSpaceOnUse" id="clipPath47">
<path d="M289 362 L434 362 L434 442 L289 442 L289 362 Z"/>
</clipPath>
<clipPath clipPathUnits="userSpaceOnUse" id="clipPath48">
<path d="M32 44 L744 44 L744 469 L32 469 L32 44 Z"/>
</clipPath>
<clipPath clipPathUnits="userSpaceOnUse" id="clipPath49">
<path d="M21 402 L43 402 L43 424 L21 424 L21 402 Z"/>
</clipPath>
<clipPath clipPathUnits="userSpaceOnUse" id="clipPath50">
<path d="M732 389 L754 389 L754 411 L732 411 L732 389 Z"/>
</clipPath>
<clipPath clipPathUnits="userSpaceOnUse" id="clipPath51">
<path d="M21 149 L43 149 L43 171 L21 171 L21 149 Z"/>
</clipPath>
<clipPath clipPathUnits="userSpaceOnUse" id="clipPath52">
<path d="M21 325 L43 325 L43 347 L21 347 L21 325 Z"/>
</clipPath>
<clipPath clipPathUnits="userSpaceOnUse" id="clipPath53">
<path d="M-1 -1 L764 -1 L764 479 L-1 479 L-1 -1 Z"/>
</clipPath>
<clipPath clipPathUnits="userSpaceOnUse" id="clipPath54">
<path d="M122 282 L203 282 L203 299 L122 299 L122 282 Z"/>
</clipPath>
<clipPath clipPathUnits="userSpaceOnUse" id="clipPath55">
<path d="M189 261 L204 261 L204 280 L189 280 L189 261 Z"/>
</clipPath>
<clipPath clipPathUnits="userSpaceOnUse" id="clipPath56">
<path d="M389 307 L480 307 L480 324 L389 324 L389 307 Z"/>
</clipPath>
<clipPath clipPathUnits="userSpaceOnUse" id="clipPath57">
<path d="M275 166 L294 166 L294 181 L275 181 L275 166 Z"/>
</clipPath>
</defs>
<g font-size="15" fill="white" font-family="'Ubuntu'" stroke-linejoin="round" stroke="white" stroke-width="0" stroke-miterlimit="0">
<rect x="32" y="10" clip-path="url(#clipPath1)" width="711" height="458" stroke="none"/>
</g>
<g stroke-miterlimit="0" stroke-width="0" stroke-linejoin="round">
<text xml:space="preserve" x="365" y="25" clip-path="url(#clipPath2)" stroke="none">«block»</text>
<text xml:space="preserve" x="368" y="41" clip-path="url(#clipPath3)" stroke="none">Printer</text>
</g>
<g font-size="15" fill="white" font-family="'Ubuntu'" stroke-linejoin="round" stroke="white" stroke-width="0" stroke-miterlimit="0">
<rect x="94" y="383" clip-path="url(#clipPath4)" width="177" height="65" stroke="none"/>
</g>
<g stroke-miterlimit="0" stroke-width="0" stroke-linejoin="round">
<text xml:space="preserve" x="166" y="405" clip-path="url(#clipPath5)" stroke="none">«part»</text>
<text xml:space="preserve" x="145" y="421" clip-path="url(#clipPath6)" stroke="none">«mandatory»</text>
<text xml:space="preserve" x="114" y="437" clip-path="url(#clipPath7)" stroke="none">mainSupply: MainPower</text>
</g>
<g stroke-width="1.1" font-size="15" font-family="'Ubuntu'" stroke-linecap="butt">
<rect x="94" y="383" clip-path="url(#clipPath4)" fill="none" width="176" height="64"/>
<rect x="84" y="404" clip-path="url(#clipPath8)" fill="white" width="20" height="20" stroke="none"/>
<rect x="84" y="404" clip-path="url(#clipPath8)" fill="none" width="19" height="19"/>
<rect x="92" y="306" clip-path="url(#clipPath9)" fill="white" width="177" height="65" stroke="none"/>
<text x="164" font-size="12" y="328" clip-path="url(#clipPath10)" font-family="'Dialog'" stroke="none" xml:space="preserve">«part»</text>
<text x="152" font-size="12" y="344" clip-path="url(#clipPath11)" font-family="'Dialog'" stroke="none" xml:space="preserve">«optional»</text>
<text x="113" font-size="12" y="360" clip-path="url(#clipPath12)" font-family="'Dialog'" stroke="none" xml:space="preserve">emgSupply: EmgPower</text>
<rect x="92" y="306" clip-path="url(#clipPath9)" fill="none" width="176" height="64"/>
<rect x="82" y="327" clip-path="url(#clipPath13)" fill="white" width="20" height="20" stroke="none"/>
<rect x="82" y="327" clip-path="url(#clipPath13)" fill="none" width="19" height="19"/>
<rect x="507" y="387" clip-path="url(#clipPath14)" fill="white" width="146" height="65" stroke="none"/>
<text x="563" font-size="12" y="409" clip-path="url(#clipPath15)" font-family="'Dialog'" stroke="none" xml:space="preserve">«part»</text>
<text x="529" font-size="12" y="425" clip-path="url(#clipPath16)" font-family="'Dialog'" stroke="none" xml:space="preserve">«alternative_XOR»</text>
<text x="524" font-size="12" y="441" clip-path="url(#clipPath17)" font-family="'Dialog'" stroke="none" xml:space="preserve">colorTonner: Tonner</text>
<rect x="507" y="387" clip-path="url(#clipPath14)" fill="none" width="145" height="64"/>
<rect x="643" y="410" clip-path="url(#clipPath18)" fill="white" width="20" height="20" stroke="none"/>
<rect x="643" y="410" clip-path="url(#clipPath18)" fill="none" width="19" height="19"/>
<rect x="578" y="296" clip-path="url(#clipPath19)" fill="white" width="157" height="65" stroke="none"/>
<text x="640" font-size="12" y="318" clip-path="url(#clipPath20)" font-family="'Dialog'" stroke="none" xml:space="preserve">«part»</text>
<text x="605" font-size="12" y="334" clip-path="url(#clipPath21)" font-family="'Dialog'" stroke="none" xml:space="preserve">«alternative_XOR»</text>
<text x="606" font-size="12" y="350" clip-path="url(#clipPath22)" font-family="'Dialog'" stroke="none" xml:space="preserve">bwTonner: Tonner</text>
<rect x="578" y="296" clip-path="url(#clipPath19)" fill="none" width="156" height="64"/>
<rect x="646" y="351" clip-path="url(#clipPath23)" fill="white" width="20" height="20" stroke="none"/>
<rect x="646" y="351" clip-path="url(#clipPath23)" fill="none" width="19" height="19"/>
<rect x="97" y="63" clip-path="url(#clipPath24)" fill="white" width="179" height="65" stroke="none"/>
<text x="170" font-size="12" y="85" clip-path="url(#clipPath25)" font-family="'Dialog'" stroke="none" xml:space="preserve">«part»</text>
<text x="139" font-size="12" y="101" clip-path="url(#clipPath26)" font-family="'Dialog'" stroke="none" xml:space="preserve">«alternative_OR»</text>
<text x="108" font-size="12" y="117" clip-path="url(#clipPath27)" font-family="'Dialog'" stroke="none" xml:space="preserve">usb2Connector: Connector</text>
<rect x="97" y="63" clip-path="url(#clipPath24)" fill="none" width="178" height="64"/>
<rect x="87" y="84" clip-path="url(#clipPath28)" fill="white" width="20" height="20" stroke="none"/>
<rect x="87" y="84" clip-path="url(#clipPath28)" fill="none" width="19" height="19"/>
<rect x="97" y="197" clip-path="url(#clipPath29)" fill="white" width="179" height="65" stroke="none"/>
<text x="170" font-size="12" y="219" clip-path="url(#clipPath30)" font-family="'Dialog'" stroke="none" xml:space="preserve">«part»</text>
<text x="139" font-size="12" y="235" clip-path="url(#clipPath31)" font-family="'Dialog'" stroke="none" xml:space="preserve">«alternative_OR»</text>
<text x="113" font-size="12" y="251" clip-path="url(#clipPath32)" font-family="'Dialog'" stroke="none" xml:space="preserve">wifiConnector: Connector</text>
<rect x="97" y="197" clip-path="url(#clipPath29)" fill="none" width="178" height="64"/>
<rect x="87" y="218" clip-path="url(#clipPath33)" fill="white" width="20" height="20" stroke="none"/>
<rect x="87" y="218" clip-path="url(#clipPath33)" fill="none" width="19" height="19"/>
<rect x="97" y="130" clip-path="url(#clipPath34)" fill="white" width="179" height="65" stroke="none"/>
<text x="170" font-size="12" y="152" clip-path="url(#clipPath35)" font-family="'Dialog'" stroke="none" xml:space="preserve">«part»</text>
<text x="139" font-size="12" y="168" clip-path="url(#clipPath36)" font-family="'Dialog'" stroke="none" xml:space="preserve">«alternative_OR»</text>
<text x="108" font-size="12" y="184" clip-path="url(#clipPath37)" font-family="'Dialog'" stroke="none" xml:space="preserve">usb3Connector: Connector</text>
<rect x="97" y="130" clip-path="url(#clipPath34)" fill="none" width="178" height="64"/>
<rect x="87" y="151" clip-path="url(#clipPath38)" fill="white" width="20" height="20" stroke="none"/>
<rect x="87" y="151" clip-path="url(#clipPath38)" fill="none" width="19" height="19"/>
</g>
<g stroke-linecap="butt" font-size="16" fill="white" font-family="'Semafor'" stroke="white" stroke-width="1.1">
<path d="M342 51 L680 51 L692 63 L692 163 L342 163 ZM342 51" clip-path="url(#clipPath39)" fill-rule="evenodd" stroke="none"/>
</g>
<g stroke-linecap="butt" stroke-width="1.1">
<text xml:space="preserve" x="477" y="69" clip-path="url(#clipPath40)" stroke="none">«variability»</text>
<text x="348" font-size="11" y="83" clip-path="url(#clipPath41)" stroke="none" xml:space="preserve">name = ConnectorType</text>
<text x="348" font-size="11" y="96" clip-path="url(#clipPath41)" stroke="none" xml:space="preserve">minSelection = 1</text>
<text x="348" font-size="11" y="109" clip-path="url(#clipPath41)" stroke="none" xml:space="preserve">maxSelection = 3</text>
<text x="348" font-size="11" y="122" clip-path="url(#clipPath41)" stroke="none" xml:space="preserve">bindingTime = DESIGN_TIME</text>
<text x="348" font-size="11" y="135" clip-path="url(#clipPath41)" stroke="none" xml:space="preserve">allowsAddingVar = false</text>
<text x="348" font-size="11" y="148" clip-path="url(#clipPath41)" stroke="none" xml:space="preserve">variants = {usb2Connector, usb3Connector, wifiConnector}</text>
<line clip-path="url(#clipPath39)" fill="none" x1="342" x2="680" y1="51" y2="51"/>
<line clip-path="url(#clipPath39)" fill="none" x1="680" x2="692" y1="51" y2="63"/>
<line clip-path="url(#clipPath39)" fill="none" x1="692" x2="692" y1="63" y2="163"/>
<line clip-path="url(#clipPath39)" fill="none" x1="692" x2="342" y1="163" y2="163"/>
<line clip-path="url(#clipPath39)" fill="none" x1="342" x2="342" y1="163" y2="51"/>
<line clip-path="url(#clipPath39)" fill="none" x1="342" x2="342" y1="51" y2="51"/>
<line clip-path="url(#clipPath39)" fill="none" x1="680" x2="680" y1="51" y2="63"/>
<line clip-path="url(#clipPath39)" fill="none" x1="680" x2="693" y1="63" y2="63"/>
<path fill="white" d="M424 173 L667 173 L679 185 L679 277 L424 277 ZM424 173" clip-path="url(#clipPath42)" fill-rule="evenodd" stroke="none"/>
<text xml:space="preserve" x="511" y="191" clip-path="url(#clipPath43)" stroke="none">«variability»</text>
<text x="430" font-size="11" y="205" clip-path="url(#clipPath44)" stroke="none" xml:space="preserve">name = TonnerType</text>
<text x="430" font-size="11" y="218" clip-path="url(#clipPath44)" stroke="none" xml:space="preserve">minSelection = 1</text>
<text x="430" font-size="11" y="231" clip-path="url(#clipPath44)" stroke="none" xml:space="preserve">maxSelection = 1</text>
<text x="430" font-size="11" y="244" clip-path="url(#clipPath44)" stroke="none" xml:space="preserve">bindingTime = DESIGN_TIME</text>
<text x="430" font-size="11" y="257" clip-path="url(#clipPath44)" stroke="none" xml:space="preserve">allowsAddingVar = false</text>
<text x="430" font-size="11" y="270" clip-path="url(#clipPath44)" stroke="none" xml:space="preserve">variants = {colorTonner, bwTonner}</text>
<line clip-path="url(#clipPath42)" fill="none" x1="424" x2="667" y1="173" y2="173"/>
<line clip-path="url(#clipPath42)" fill="none" x1="667" x2="679" y1="173" y2="185"/>
<line clip-path="url(#clipPath42)" fill="none" x1="679" x2="679" y1="185" y2="277"/>
<line clip-path="url(#clipPath42)" fill="none" x1="679" x2="424" y1="277" y2="277"/>
<line clip-path="url(#clipPath42)" fill="none" x1="424" x2="424" y1="277" y2="173"/>
<line clip-path="url(#clipPath42)" fill="none" x1="424" x2="424" y1="173" y2="173"/>
<line clip-path="url(#clipPath42)" fill="none" x1="667" x2="667" y1="173" y2="185"/>
<line clip-path="url(#clipPath42)" fill="none" x1="667" x2="680" y1="185" y2="185"/>
<path fill="white" d="M284 342 L483 342 L495 354 L495 446 L284 446 ZM284 342" clip-path="url(#clipPath45)" fill-rule="evenodd" stroke="none"/>
<text xml:space="preserve" x="349" y="360" clip-path="url(#clipPath46)" stroke="none">«variability»</text>
<text x="290" font-size="11" y="374" clip-path="url(#clipPath47)" stroke="none" xml:space="preserve">name = EmgSupply</text>
<text x="290" font-size="11" y="387" clip-path="url(#clipPath47)" stroke="none" xml:space="preserve">minSelection = 0</text>
<text x="290" font-size="11" y="400" clip-path="url(#clipPath47)" stroke="none" xml:space="preserve">maxSelection = 1</text>
<text x="290" font-size="11" y="413" clip-path="url(#clipPath47)" stroke="none" xml:space="preserve">bindingTime = DESING_TIME</text>
<text x="290" font-size="11" y="426" clip-path="url(#clipPath47)" stroke="none" xml:space="preserve">allowAddingVar = false</text>
<text x="290" font-size="11" y="439" clip-path="url(#clipPath47)" stroke="none" xml:space="preserve">variants = {emgSupply}</text>
<line clip-path="url(#clipPath45)" fill="none" x1="284" x2="483" y1="342" y2="342"/>
<line clip-path="url(#clipPath45)" fill="none" x1="483" x2="495" y1="342" y2="354"/>
<line clip-path="url(#clipPath45)" fill="none" x1="495" x2="495" y1="354" y2="446"/>
<line clip-path="url(#clipPath45)" fill="none" x1="495" x2="284" y1="446" y2="446"/>
<line clip-path="url(#clipPath45)" fill="none" x1="284" x2="284" y1="446" y2="342"/>
<line clip-path="url(#clipPath45)" fill="none" x1="284" x2="284" y1="342" y2="342"/>
<line clip-path="url(#clipPath45)" fill="none" x1="483" x2="483" y1="342" y2="354"/>
<line clip-path="url(#clipPath45)" fill="none" x1="483" x2="496" y1="354" y2="354"/>
<line clip-path="url(#clipPath48)" fill="none" x1="33" x2="744" y1="45" y2="45"/>
<rect x="32" y="10" clip-path="url(#clipPath1)" fill="none" width="710" height="457"/>
</g>
<g stroke-linecap="butt" font-size="15" fill="white" font-family="'Ubuntu'" stroke="white" stroke-width="1.1">
<rect x="22" y="403" clip-path="url(#clipPath49)" width="20" height="20" stroke="none"/>
<rect x="22" y="403" clip-path="url(#clipPath49)" fill="none" width="19" height="19" stroke="black"/>
<rect x="733" y="390" clip-path="url(#clipPath50)" width="20" height="20" stroke="none"/>
<rect x="733" y="390" clip-path="url(#clipPath50)" fill="none" width="19" height="19" stroke="black"/>
<rect x="22" y="150" clip-path="url(#clipPath51)" width="20" height="20" stroke="none"/>
<rect x="22" y="150" clip-path="url(#clipPath51)" fill="none" width="19" height="19" stroke="black"/>
<rect x="22" y="326" clip-path="url(#clipPath52)" width="20" height="20" stroke="none"/>
<rect x="22" y="326" clip-path="url(#clipPath52)" fill="none" width="19" height="19" stroke="black"/>
</g>
<g text-rendering="optimizeLegibility" stroke-width="1.1" stroke-dasharray="6.6,3.3" stroke-linecap="butt">
<line clip-path="url(#clipPath53)" fill="none" x1="565" x2="565" y1="278" y2="387"/>
<line clip-path="url(#clipPath53)" fill="none" x1="680" x2="699" y1="246" y2="246"/>
<line clip-path="url(#clipPath53)" fill="none" x1="699" x2="699" y1="246" y2="296"/>
<line clip-path="url(#clipPath53)" fill="none" x1="82" x2="42" y1="334" y2="334" stroke-dasharray="none"/>
<line clip-path="url(#clipPath53)" fill="none" x1="342" x2="276" y1="104" y2="104"/>
<line clip-path="url(#clipPath53)" fill="none" x1="87" x2="42" y1="91" y2="157" stroke-dasharray="none"/>
<line clip-path="url(#clipPath53)" fill="none" x1="342" x2="276" y1="104" y2="140"/>
<line clip-path="url(#clipPath53)" fill="none" x1="342" x2="276" y1="102" y2="217"/>
<line clip-path="url(#clipPath53)" fill="none" x1="663" x2="733" y1="421" y2="398" stroke-dasharray="none"/>
<line clip-path="url(#clipPath53)" fill="none" x1="87" x2="42" y1="221" y2="164" stroke-dasharray="none"/>
<line clip-path="url(#clipPath53)" fill="none" x1="196" x2="196" y1="306" y2="262" stroke-dasharray="5,5,5,5,5,5,5,5,5,5"/>
<text x="123" y="295" clip-path="url(#clipPath54)" stroke-dasharray="5,5,5,5,5,5,5,5,5,5" stroke="none" xml:space="preserve">&lt;&lt;mutex&gt;&gt;</text>
<line clip-path="url(#clipPath55)" fill="none" x1="202" x2="196" y1="278" y2="262" stroke-dasharray="none"/>
<line clip-path="url(#clipPath55)" fill="none" x1="196" x2="190" y1="262" y2="278" stroke-dasharray="none"/>
<line clip-path="url(#clipPath53)" fill="none" x1="666" x2="733" y1="369" y2="397" stroke-dasharray="none"/>
<line clip-path="url(#clipPath53)" fill="none" x1="533" x2="533" y1="387" y2="302" stroke-dasharray="5,5,5,5,5,5,5,5,5,5"/>
<line clip-path="url(#clipPath53)" fill="none" x1="533" x2="387" y1="302" y2="302" stroke-dasharray="5,5,5,5,5,5,5,5,5,5"/>
<line clip-path="url(#clipPath53)" fill="none" x1="387" x2="387" y1="302" y2="173" stroke-dasharray="5,5,5,5,5,5,5,5,5,5"/>
<line clip-path="url(#clipPath53)" fill="none" x1="387" x2="276" y1="173" y2="173" stroke-dasharray="5,5,5,5,5,5,5,5,5,5"/>
<text x="390" y="320" clip-path="url(#clipPath56)" stroke-dasharray="5,5,5,5,5,5,5,5,5,5" stroke="none" xml:space="preserve">&lt;&lt;requires&gt;&gt;</text>
<line clip-path="url(#clipPath57)" fill="none" x1="292" x2="276" y1="167" y2="173" stroke-dasharray="none"/>
<line clip-path="url(#clipPath57)" fill="none" x1="276" x2="292" y1="173" y2="179" stroke-dasharray="none"/>
<line clip-path="url(#clipPath53)" fill="none" x1="42" x2="84" y1="415" y2="415" stroke-dasharray="none"/>
<line clip-path="url(#clipPath53)" fill="none" x1="42" x2="87" y1="158" y2="158" stroke-dasharray="none"/>
<line clip-path="url(#clipPath53)" fill="none" x1="355" x2="355" y1="342" y2="323"/>
<line clip-path="url(#clipPath53)" fill="none" x1="355" x2="269" y1="323" y2="323"/>
<line clip-path="url(#clipPath53)" fill="none" x1="42" x2="84" y1="415" y2="415" stroke-dasharray="none"/>
<line clip-path="url(#clipPath53)" fill="none" x1="666" x2="733" y1="369" y2="397" stroke-dasharray="none"/>
<line clip-path="url(#clipPath53)" fill="none" x1="663" x2="733" y1="421" y2="398" stroke-dasharray="none"/>
<line clip-path="url(#clipPath53)" fill="none" x1="87" x2="42" y1="91" y2="157" stroke-dasharray="none"/>
<line clip-path="url(#clipPath53)" fill="none" x1="87" x2="42" y1="221" y2="164" stroke-dasharray="none"/>
<line clip-path="url(#clipPath53)" fill="none" x1="42" x2="87" y1="158" y2="158" stroke-dasharray="none"/>
<line clip-path="url(#clipPath53)" fill="none" x1="82" x2="42" y1="334" y2="334" stroke-dasharray="none"/>
<line clip-path="url(#clipPath53)" fill="none" x1="533" x2="533" y1="387" y2="302" stroke-dasharray="5,5,5,5,5,5,5,5,5,5"/>
<line clip-path="url(#clipPath53)" fill="none" x1="533" x2="387" y1="302" y2="302" stroke-dasharray="5,5,5,5,5,5,5,5,5,5"/>
<line clip-path="url(#clipPath53)" fill="none" x1="387" x2="387" y1="302" y2="173" stroke-dasharray="5,5,5,5,5,5,5,5,5,5"/>
<line clip-path="url(#clipPath53)" fill="none" x1="387" x2="276" y1="173" y2="173" stroke-dasharray="5,5,5,5,5,5,5,5,5,5"/>
<text x="390" y="320" clip-path="url(#clipPath56)" stroke-dasharray="5,5,5,5,5,5,5,5,5,5" stroke="none" xml:space="preserve">&lt;&lt;requires&gt;&gt;</text>
<line clip-path="url(#clipPath57)" fill="none" x1="292" x2="276" y1="167" y2="173" stroke-dasharray="none"/>
<line clip-path="url(#clipPath57)" fill="none" x1="276" x2="292" y1="173" y2="179" stroke-dasharray="none"/>
<line clip-path="url(#clipPath53)" fill="none" x1="196" x2="196" y1="306" y2="262" stroke-dasharray="5,5,5,5,5,5,5,5,5,5"/>
<text x="123" y="295" clip-path="url(#clipPath54)" stroke-dasharray="5,5,5,5,5,5,5,5,5,5" stroke="none" xml:space="preserve">&lt;&lt;mutex&gt;&gt;</text>
<line clip-path="url(#clipPath55)" fill="none" x1="202" x2="196" y1="278" y2="262" stroke-dasharray="none"/>
<line clip-path="url(#clipPath55)" fill="none" x1="196" x2="190" y1="262" y2="278" stroke-dasharray="none"/>
<line clip-path="url(#clipPath53)" fill="none" x1="342" x2="276" y1="104" y2="104"/>
<line clip-path="url(#clipPath53)" fill="none" x1="342" x2="276" y1="104" y2="140"/>
<line clip-path="url(#clipPath53)" fill="none" x1="342" x2="276" y1="102" y2="217"/>
<line clip-path="url(#clipPath53)" fill="none" x1="565" x2="565" y1="278" y2="387"/>
<line clip-path="url(#clipPath53)" fill="none" x1="680" x2="699" y1="246" y2="246"/>
<line clip-path="url(#clipPath53)" fill="none" x1="699" x2="699" y1="246" y2="296"/>
<line clip-path="url(#clipPath53)" fill="none" x1="355" x2="355" y1="342" y2="323"/>
<line clip-path="url(#clipPath53)" fill="none" x1="355" x2="269" y1="323" y2="323"/>
</g>
</g>
</svg>
