<?xml version="1.0" encoding="UTF-8" standalone="no"?>
<svg
   xmlns:dc="http://purl.org/dc/elements/1.1/"
   xmlns:cc="http://creativecommons.org/ns#"
   xmlns:rdf="http://www.w3.org/1999/02/22-rdf-syntax-ns#"
   xmlns:svg="http://www.w3.org/2000/svg"
   xmlns="http://www.w3.org/2000/svg"
   xmlns:sodipodi="http://sodipodi.sourceforge.net/DTD/sodipodi-0.dtd"
   xmlns:inkscape="http://www.inkscape.org/namespaces/inkscape"
   shape-rendering="auto"
   width="471.8678"
   text-rendering="auto"
   contentScriptType="text/ecmascript"
   color-interpolation="auto"
   color-rendering="auto"
   preserveAspectRatio="xMidYMid meet"
   font-size="12"
   viewBox="0 0 471.8678 121.20799"
   image-rendering="auto"
   stroke-miterlimit="10"
   zoomAndPan="magnify"
   version="1.0"
   contentStyleType="text/css"
   font-style="normal"
   height="121.20799"
   font-weight="normal"
   id="svg2"
   inkscape:version="0.48.3.1 r9886"
   sodipodi:docname="printer2-cvl-blocks-implies.svg"
   style="font-size:12px;font-style:normal;font-weight:normal;fill:#000000;fill-opacity:1;stroke:#000000;stroke-width:1;stroke-linecap:square;stroke-linejoin:miter;stroke-miterlimit:10;stroke-opacity:1;stroke-dasharray:none;stroke-dashoffset:0;font-family:Dialog">
  <metadata
     id="metadata286">
    <rdf:RDF>
      <cc:Work
         rdf:about="">
        <dc:format>image/svg+xml</dc:format>
        <dc:type
           rdf:resource="http://purl.org/dc/dcmitype/StillImage" />
        <dc:title />
      </cc:Work>
    </rdf:RDF>
  </metadata>
  <sodipodi:namedview
     pagecolor="#ff0000"
     bordercolor="#666666"
     borderopacity="1"
     objecttolerance="10"
     gridtolerance="10"
     guidetolerance="10"
     inkscape:pageopacity="0"
     inkscape:pageshadow="2"
     inkscape:window-width="1301"
     inkscape:window-height="744"
     id="namedview284"
     showgrid="false"
     fit-margin-top="0"
     fit-margin-left="0"
     fit-margin-right="0"
     fit-margin-bottom="0"
     inkscape:zoom="1.0041298"
     inkscape:cx="163.47202"
     inkscape:cy="-61.507815"
     inkscape:window-x="65"
     inkscape:window-y="24"
     inkscape:window-maximized="1"
     inkscape:current-layer="svg2"
     showguides="true"
     inkscape:guide-bbox="true" />
  <!--Generated by the Batik Graphics2D SVG Generator-->
  <path
     sodipodi:nodetypes="cc"
     inkscape:connector-curvature="0"
     id="path3718"
     d="M 366.51263,93.613406 240.03497,12.946543"
     style="fill:none;stroke:#000000;stroke-width:1px;stroke-linecap:butt;stroke-linejoin:miter;stroke-opacity:1" />
  <defs
     id="genericDefs">
    <marker
       inkscape:stockid="DotM"
       orient="auto"
       refY="0"
       refX="0"
       id="DotM"
       style="overflow:visible">
      <path
         id="path7206"
         d="m -2.5,-1 c 0,2.76 -2.24,5 -5,5 -2.76,0 -5,-2.24 -5,-5 0,-2.76 2.24,-5 5,-5 2.76,0 5,2.24 5,5 z"
         style="fill-rule:evenodd;stroke:#000000;stroke-width:1pt"
         transform="matrix(0.4,0,0,0.4,2.96,0.4)"
         inkscape:connector-curvature="0" />
    </marker>
    <clipPath
       clipPathUnits="userSpaceOnUse"
       id="clipPath1">
      <path
         inkscape:connector-curvature="0"
         d="M 9,9 688,9 688,253 9,253 9,9 z"
         id="path9" />
    </clipPath>
    <clipPath
       clipPathUnits="userSpaceOnUse"
       id="clipPath3275">
      <path
         inkscape:connector-curvature="0"
         d="M 9,9 688,9 688,253 9,253 9,9 z"
         id="path3277" />
    </clipPath>
    <clipPath
       clipPathUnits="userSpaceOnUse"
       id="clipPath3279">
      <path
         inkscape:connector-curvature="0"
         d="M 9,9 688,9 688,253 9,253 9,9 z"
         id="path3281" />
    </clipPath>
    <clipPath
       clipPathUnits="userSpaceOnUse"
       id="clipPath2">
      <path
         inkscape:connector-curvature="0"
         d="m 19,14 42,0 0,17 -42,0 0,-17 z"
         id="path12" />
    </clipPath>
    <clipPath
       clipPathUnits="userSpaceOnUse"
       id="clipPath3">
      <path
         inkscape:connector-curvature="0"
         d="m 9,30 679,0 0,223 L 9,253 9,30 z"
         id="path15" />
    </clipPath>
    <clipPath
       clipPathUnits="userSpaceOnUse"
       id="clipPath4">
      <path
         inkscape:connector-curvature="0"
         d="m 140,162 102,0 0,68 -102,0 0,-68 z"
         id="path18" />
    </clipPath>
    <clipPath
       clipPathUnits="userSpaceOnUse"
       id="clipPath5">
      <path
         inkscape:connector-curvature="0"
         d="m 143,180 99,0 0,17 -99,0 0,-17 z"
         id="path21" />
    </clipPath>
    <clipPath
       clipPathUnits="userSpaceOnUse"
       id="clipPath6">
      <path
         inkscape:connector-curvature="0"
         d="m 162,196 64,0 0,17 -64,0 0,-17 z"
         id="path24" />
    </clipPath>
    <clipPath
       clipPathUnits="userSpaceOnUse"
       id="clipPath3293">
      <path
         inkscape:connector-curvature="0"
         d="m 140,162 102,0 0,68 -102,0 0,-68 z"
         id="path3295" />
    </clipPath>
    <clipPath
       clipPathUnits="userSpaceOnUse"
       id="clipPath7">
      <path
         inkscape:connector-curvature="0"
         d="m 26,49 107,0 0,68 -107,0 0,-68 z"
         id="path27" />
    </clipPath>
    <clipPath
       clipPathUnits="userSpaceOnUse"
       id="clipPath8">
      <path
         inkscape:connector-curvature="0"
         d="m 29,67 104,0 0,17 -104,0 0,-17 z"
         id="path30" />
    </clipPath>
    <clipPath
       clipPathUnits="userSpaceOnUse"
       id="clipPath9">
      <path
         inkscape:connector-curvature="0"
         d="m 35,83 95,0 0,17 -95,0 0,-17 z"
         id="path33" />
    </clipPath>
    <clipPath
       clipPathUnits="userSpaceOnUse"
       id="clipPath3303">
      <path
         inkscape:connector-curvature="0"
         d="m 26,49 107,0 0,68 -107,0 0,-68 z"
         id="path3305" />
    </clipPath>
    <clipPath
       clipPathUnits="userSpaceOnUse"
       id="clipPath10">
      <path
         inkscape:connector-curvature="0"
         d="m 251,49 107,0 0,68 -107,0 0,-68 z"
         id="path36" />
    </clipPath>
    <clipPath
       clipPathUnits="userSpaceOnUse"
       id="clipPath11">
      <path
         inkscape:connector-curvature="0"
         d="m 254,67 104,0 0,17 -104,0 0,-17 z"
         id="path39" />
    </clipPath>
    <clipPath
       clipPathUnits="userSpaceOnUse"
       id="clipPath12">
      <path
         inkscape:connector-curvature="0"
         d="m 264,83 87,0 0,17 -87,0 0,-17 z"
         id="path42" />
    </clipPath>
    <clipPath
       clipPathUnits="userSpaceOnUse"
       id="clipPath3313">
      <path
         inkscape:connector-curvature="0"
         d="m 251,49 107,0 0,68 -107,0 0,-68 z"
         id="path3315" />
    </clipPath>
    <clipPath
       clipPathUnits="userSpaceOnUse"
       id="clipPath13">
      <path
         inkscape:connector-curvature="0"
         d="m 138,49 107,0 0,68 -107,0 0,-68 z"
         id="path45" />
    </clipPath>
    <clipPath
       clipPathUnits="userSpaceOnUse"
       id="clipPath14">
      <path
         inkscape:connector-curvature="0"
         d="m 141,67 104,0 0,17 -104,0 0,-17 z"
         id="path48" />
    </clipPath>
    <clipPath
       clipPathUnits="userSpaceOnUse"
       id="clipPath15">
      <path
         inkscape:connector-curvature="0"
         d="m 147,83 95,0 0,17 -95,0 0,-17 z"
         id="path51" />
    </clipPath>
    <clipPath
       clipPathUnits="userSpaceOnUse"
       id="clipPath3323">
      <path
         inkscape:connector-curvature="0"
         d="m 138,49 107,0 0,68 -107,0 0,-68 z"
         id="path3325" />
    </clipPath>
    <clipPath
       clipPathUnits="userSpaceOnUse"
       id="clipPath16">
      <path
         inkscape:connector-curvature="0"
         d="m 564,162 102,0 0,74 -102,0 0,-74 z"
         id="path54" />
    </clipPath>
    <clipPath
       clipPathUnits="userSpaceOnUse"
       id="clipPath17">
      <path
         inkscape:connector-curvature="0"
         d="m 567,183 99,0 0,17 -99,0 0,-17 z"
         id="path57" />
    </clipPath>
    <clipPath
       clipPathUnits="userSpaceOnUse"
       id="clipPath18">
      <path
         inkscape:connector-curvature="0"
         d="m 585,199 66,0 0,17 -66,0 0,-17 z"
         id="path60" />
    </clipPath>
    <clipPath
       clipPathUnits="userSpaceOnUse"
       id="clipPath3333">
      <path
         inkscape:connector-curvature="0"
         d="m 564,162 102,0 0,74 -102,0 0,-74 z"
         id="path3335" />
    </clipPath>
    <clipPath
       clipPathUnits="userSpaceOnUse"
       id="clipPath19">
      <path
         inkscape:connector-curvature="0"
         d="m 565,49 102,0 0,66 -102,0 0,-66 z"
         id="path63" />
    </clipPath>
    <clipPath
       clipPathUnits="userSpaceOnUse"
       id="clipPath20">
      <path
         inkscape:connector-curvature="0"
         d="m 568,66 99,0 0,17 -99,0 0,-17 z"
         id="path66" />
    </clipPath>
    <clipPath
       clipPathUnits="userSpaceOnUse"
       id="clipPath21">
      <path
         inkscape:connector-curvature="0"
         d="m 586,82 66,0 0,17 -66,0 0,-17 z"
         id="path69" />
    </clipPath>
    <clipPath
       clipPathUnits="userSpaceOnUse"
       id="clipPath3343">
      <path
         inkscape:connector-curvature="0"
         d="m 565,49 102,0 0,66 -102,0 0,-66 z"
         id="path3345" />
    </clipPath>
    <clipPath
       clipPathUnits="userSpaceOnUse"
       id="clipPath22">
      <path
         inkscape:connector-curvature="0"
         d="m 408,162 102,0 0,66 -102,0 0,-66 z"
         id="path72" />
    </clipPath>
    <clipPath
       clipPathUnits="userSpaceOnUse"
       id="clipPath23">
      <path
         inkscape:connector-curvature="0"
         d="m 411,179 99,0 0,17 -99,0 0,-17 z"
         id="path75" />
    </clipPath>
    <clipPath
       clipPathUnits="userSpaceOnUse"
       id="clipPath24">
      <path
         inkscape:connector-curvature="0"
         d="m 441,195 42,0 0,17 -42,0 0,-17 z"
         id="path78" />
    </clipPath>
    <clipPath
       clipPathUnits="userSpaceOnUse"
       id="clipPath3353">
      <path
         inkscape:connector-curvature="0"
         d="m 408,162 102,0 0,66 -102,0 0,-66 z"
         id="path3355" />
    </clipPath>
    <clipPath
       clipPathUnits="userSpaceOnUse"
       id="clipPath25">
      <path
         inkscape:connector-curvature="0"
         d="m 364,49 92,0 0,66 -92,0 0,-66 z"
         id="path81" />
    </clipPath>
    <clipPath
       clipPathUnits="userSpaceOnUse"
       id="clipPath26">
      <path
         inkscape:connector-curvature="0"
         d="m 367,66 89,0 0,17 -89,0 0,-17 z"
         id="path84" />
    </clipPath>
    <clipPath
       clipPathUnits="userSpaceOnUse"
       id="clipPath27">
      <path
         inkscape:connector-curvature="0"
         d="m 382,82 62,0 0,17 -62,0 0,-17 z"
         id="path87" />
    </clipPath>
    <clipPath
       clipPathUnits="userSpaceOnUse"
       id="clipPath3363">
      <path
         inkscape:connector-curvature="0"
         d="m 364,49 92,0 0,66 -92,0 0,-66 z"
         id="path3365" />
    </clipPath>
    <clipPath
       clipPathUnits="userSpaceOnUse"
       id="clipPath28">
      <path
         inkscape:connector-curvature="0"
         d="m 462,49 92,0 0,66 -92,0 0,-66 z"
         id="path90" />
    </clipPath>
    <clipPath
       clipPathUnits="userSpaceOnUse"
       id="clipPath29">
      <path
         inkscape:connector-curvature="0"
         d="m 465,66 89,0 0,17 -89,0 0,-17 z"
         id="path93" />
    </clipPath>
    <clipPath
       clipPathUnits="userSpaceOnUse"
       id="clipPath30">
      <path
         inkscape:connector-curvature="0"
         d="m 475,82 72,0 0,17 -72,0 0,-17 z"
         id="path96" />
    </clipPath>
    <clipPath
       clipPathUnits="userSpaceOnUse"
       id="clipPath3373">
      <path
         inkscape:connector-curvature="0"
         d="m 462,49 92,0 0,66 -92,0 0,-66 z"
         id="path3375" />
    </clipPath>
    <clipPath
       clipPathUnits="userSpaceOnUse"
       id="clipPath3377">
      <path
         inkscape:connector-curvature="0"
         d="m 9,30 679,0 0,223 L 9,253 9,30 z"
         id="path3379" />
    </clipPath>
    <clipPath
       clipPathUnits="userSpaceOnUse"
       id="clipPath3381">
      <path
         inkscape:connector-curvature="0"
         d="M 9,9 688,9 688,253 9,253 9,9 z"
         id="path3383" />
    </clipPath>
    <clipPath
       clipPathUnits="userSpaceOnUse"
       id="clipPath31">
      <path
         inkscape:connector-curvature="0"
         d="m -1,-1 699,0 0,264 -699,0 0,-264 z"
         id="path99" />
    </clipPath>
    <clipPath
       clipPathUnits="userSpaceOnUse"
       id="clipPath3387">
      <path
         inkscape:connector-curvature="0"
         d="m -1,-1 699,0 0,264 -699,0 0,-264 z"
         id="path3389" />
    </clipPath>
    <clipPath
       clipPathUnits="userSpaceOnUse"
       id="clipPath32">
      <path
         inkscape:connector-curvature="0"
         d="m 508,175 19,0 0,15 -19,0 0,-15 z"
         id="path102" />
    </clipPath>
    <clipPath
       clipPathUnits="userSpaceOnUse"
       id="clipPath3393">
      <path
         inkscape:connector-curvature="0"
         d="m 508,175 19,0 0,15 -19,0 0,-15 z"
         id="path3395" />
    </clipPath>
    <clipPath
       clipPathUnits="userSpaceOnUse"
       id="clipPath3397">
      <path
         inkscape:connector-curvature="0"
         d="m -1,-1 699,0 0,264 -699,0 0,-264 z"
         id="path3399" />
    </clipPath>
    <clipPath
       clipPathUnits="userSpaceOnUse"
       id="clipPath3401">
      <path
         inkscape:connector-curvature="0"
         d="m -1,-1 699,0 0,264 -699,0 0,-264 z"
         id="path3403" />
    </clipPath>
    <clipPath
       clipPathUnits="userSpaceOnUse"
       id="clipPath33">
      <path
         inkscape:connector-curvature="0"
         d="m 124,188 19,0 0,15 -19,0 0,-15 z"
         id="path105" />
    </clipPath>
    <clipPath
       clipPathUnits="userSpaceOnUse"
       id="clipPath3407">
      <path
         inkscape:connector-curvature="0"
         d="m 124,188 19,0 0,15 -19,0 0,-15 z"
         id="path3409" />
    </clipPath>
    <clipPath
       clipPathUnits="userSpaceOnUse"
       id="clipPath3411">
      <path
         inkscape:connector-curvature="0"
         d="m -1,-1 699,0 0,264 -699,0 0,-264 z"
         id="path3413" />
    </clipPath>
    <clipPath
       clipPathUnits="userSpaceOnUse"
       id="clipPath34">
      <path
         inkscape:connector-curvature="0"
         d="m 184,146 15,0 0,19 -15,0 0,-19 z"
         id="path108" />
    </clipPath>
    <clipPath
       clipPathUnits="userSpaceOnUse"
       id="clipPath3417">
      <path
         inkscape:connector-curvature="0"
         d="m 184,146 15,0 0,19 -15,0 0,-19 z"
         id="path3419" />
    </clipPath>
    <clipPath
       clipPathUnits="userSpaceOnUse"
       id="clipPath3421">
      <path
         inkscape:connector-curvature="0"
         d="m -1,-1 699,0 0,264 -699,0 0,-264 z"
         id="path3423" />
    </clipPath>
    <clipPath
       clipPathUnits="userSpaceOnUse"
       id="clipPath3425">
      <path
         inkscape:connector-curvature="0"
         d="m -1,-1 699,0 0,264 -699,0 0,-264 z"
         id="path3427" />
    </clipPath>
    <clipPath
       clipPathUnits="userSpaceOnUse"
       id="clipPath35">
      <path
         inkscape:connector-curvature="0"
         d="m 392,174 19,0 0,15 -19,0 0,-15 z"
         id="path111" />
    </clipPath>
    <clipPath
       clipPathUnits="userSpaceOnUse"
       id="clipPath3431">
      <path
         inkscape:connector-curvature="0"
         d="m 392,174 19,0 0,15 -19,0 0,-15 z"
         id="path3433" />
    </clipPath>
    <clipPath
       clipPathUnits="userSpaceOnUse"
       id="clipPath3435">
      <path
         inkscape:connector-curvature="0"
         d="m -1,-1 699,0 0,264 -699,0 0,-264 z"
         id="path3437" />
    </clipPath>
    <clipPath
       clipPathUnits="userSpaceOnUse"
       id="clipPath3439">
      <path
         inkscape:connector-curvature="0"
         d="m -1,-1 699,0 0,264 -699,0 0,-264 z"
         id="path3441" />
    </clipPath>
    <clipPath
       clipPathUnits="userSpaceOnUse"
       id="clipPath36">
      <path
         inkscape:connector-curvature="0"
         d="m 240,185 19,0 0,15 -19,0 0,-15 z"
         id="path114" />
    </clipPath>
    <clipPath
       clipPathUnits="userSpaceOnUse"
       id="clipPath3445">
      <path
         inkscape:connector-curvature="0"
         d="m 240,185 19,0 0,15 -19,0 0,-15 z"
         id="path3447" />
    </clipPath>
    <clipPath
       clipPathUnits="userSpaceOnUse"
       id="clipPath3449">
      <path
         inkscape:connector-curvature="0"
         d="m -1,-1 699,0 0,264 -699,0 0,-264 z"
         id="path3451" />
    </clipPath>
    <clipPath
       clipPathUnits="userSpaceOnUse"
       id="clipPath3453">
      <path
         inkscape:connector-curvature="0"
         d="m -1,-1 699,0 0,264 -699,0 0,-264 z"
         id="path3455" />
    </clipPath>
    <clipPath
       clipPathUnits="userSpaceOnUse"
       id="clipPath3457">
      <path
         inkscape:connector-curvature="0"
         d="m 124,188 19,0 0,15 -19,0 0,-15 z"
         id="path3459" />
    </clipPath>
    <clipPath
       clipPathUnits="userSpaceOnUse"
       id="clipPath3461">
      <path
         inkscape:connector-curvature="0"
         d="m 124,188 19,0 0,15 -19,0 0,-15 z"
         id="path3463" />
    </clipPath>
    <clipPath
       clipPathUnits="userSpaceOnUse"
       id="clipPath3465">
      <path
         inkscape:connector-curvature="0"
         d="m -1,-1 699,0 0,264 -699,0 0,-264 z"
         id="path3467" />
    </clipPath>
    <clipPath
       clipPathUnits="userSpaceOnUse"
       id="clipPath3469">
      <path
         inkscape:connector-curvature="0"
         d="m 184,146 15,0 0,19 -15,0 0,-19 z"
         id="path3471" />
    </clipPath>
    <clipPath
       clipPathUnits="userSpaceOnUse"
       id="clipPath3473">
      <path
         inkscape:connector-curvature="0"
         d="m 184,146 15,0 0,19 -15,0 0,-19 z"
         id="path3475" />
    </clipPath>
    <clipPath
       clipPathUnits="userSpaceOnUse"
       id="clipPath3477">
      <path
         inkscape:connector-curvature="0"
         d="m -1,-1 699,0 0,264 -699,0 0,-264 z"
         id="path3479" />
    </clipPath>
    <clipPath
       clipPathUnits="userSpaceOnUse"
       id="clipPath3481">
      <path
         inkscape:connector-curvature="0"
         d="m -1,-1 699,0 0,264 -699,0 0,-264 z"
         id="path3483" />
    </clipPath>
    <clipPath
       clipPathUnits="userSpaceOnUse"
       id="clipPath3485">
      <path
         inkscape:connector-curvature="0"
         d="m 240,185 19,0 0,15 -19,0 0,-15 z"
         id="path3487" />
    </clipPath>
    <clipPath
       clipPathUnits="userSpaceOnUse"
       id="clipPath3489">
      <path
         inkscape:connector-curvature="0"
         d="m 240,185 19,0 0,15 -19,0 0,-15 z"
         id="path3491" />
    </clipPath>
    <clipPath
       clipPathUnits="userSpaceOnUse"
       id="clipPath3493">
      <path
         inkscape:connector-curvature="0"
         d="m -1,-1 699,0 0,264 -699,0 0,-264 z"
         id="path3495" />
    </clipPath>
    <clipPath
       clipPathUnits="userSpaceOnUse"
       id="clipPath3497">
      <path
         inkscape:connector-curvature="0"
         d="m -1,-1 699,0 0,264 -699,0 0,-264 z"
         id="path3499" />
    </clipPath>
    <clipPath
       clipPathUnits="userSpaceOnUse"
       id="clipPath3501">
      <path
         inkscape:connector-curvature="0"
         d="m 508,175 19,0 0,15 -19,0 0,-15 z"
         id="path3503" />
    </clipPath>
    <clipPath
       clipPathUnits="userSpaceOnUse"
       id="clipPath3505">
      <path
         inkscape:connector-curvature="0"
         d="m 508,175 19,0 0,15 -19,0 0,-15 z"
         id="path3507" />
    </clipPath>
    <clipPath
       clipPathUnits="userSpaceOnUse"
       id="clipPath3509">
      <path
         inkscape:connector-curvature="0"
         d="m -1,-1 699,0 0,264 -699,0 0,-264 z"
         id="path3511" />
    </clipPath>
    <clipPath
       clipPathUnits="userSpaceOnUse"
       id="clipPath3513">
      <path
         inkscape:connector-curvature="0"
         d="m -1,-1 699,0 0,264 -699,0 0,-264 z"
         id="path3515" />
    </clipPath>
    <clipPath
       clipPathUnits="userSpaceOnUse"
       id="clipPath3517">
      <path
         inkscape:connector-curvature="0"
         d="m 392,174 19,0 0,15 -19,0 0,-15 z"
         id="path3519" />
    </clipPath>
    <clipPath
       clipPathUnits="userSpaceOnUse"
       id="clipPath3521">
      <path
         inkscape:connector-curvature="0"
         d="m 392,174 19,0 0,15 -19,0 0,-15 z"
         id="path3523" />
    </clipPath>
    <defs
       id="defs1">
      <clipPath
         id="clipPath3527"
         clipPathUnits="userSpaceOnUse">
        <path
           id="path3529"
           d="M 9,9 688,9 688,253 9,253 9,9 z"
           inkscape:connector-curvature="0" />
      </clipPath>
      <clipPath
         id="clipPath3531"
         clipPathUnits="userSpaceOnUse">
        <path
           id="path3533"
           d="m 19,14 42,0 0,17 -42,0 0,-17 z"
           inkscape:connector-curvature="0" />
      </clipPath>
      <clipPath
         id="clipPath3535"
         clipPathUnits="userSpaceOnUse">
        <path
           id="path3537"
           d="m 9,30 679,0 0,223 L 9,253 9,30 z"
           inkscape:connector-curvature="0" />
      </clipPath>
      <clipPath
         id="clipPath3539"
         clipPathUnits="userSpaceOnUse">
        <path
           id="path3541"
           d="m 140,162 102,0 0,68 -102,0 0,-68 z"
           inkscape:connector-curvature="0" />
      </clipPath>
      <clipPath
         id="clipPath3543"
         clipPathUnits="userSpaceOnUse">
        <path
           id="path3545"
           d="m 143,180 99,0 0,17 -99,0 0,-17 z"
           inkscape:connector-curvature="0" />
      </clipPath>
      <clipPath
         id="clipPath3547"
         clipPathUnits="userSpaceOnUse">
        <path
           id="path3549"
           d="m 162,196 64,0 0,17 -64,0 0,-17 z"
           inkscape:connector-curvature="0" />
      </clipPath>
      <clipPath
         id="clipPath3551"
         clipPathUnits="userSpaceOnUse">
        <path
           id="path3553"
           d="m 26,49 107,0 0,68 -107,0 0,-68 z"
           inkscape:connector-curvature="0" />
      </clipPath>
      <clipPath
         id="clipPath3555"
         clipPathUnits="userSpaceOnUse">
        <path
           id="path3557"
           d="m 29,67 104,0 0,17 -104,0 0,-17 z"
           inkscape:connector-curvature="0" />
      </clipPath>
      <clipPath
         id="clipPath3559"
         clipPathUnits="userSpaceOnUse">
        <path
           id="path3561"
           d="m 35,83 95,0 0,17 -95,0 0,-17 z"
           inkscape:connector-curvature="0" />
      </clipPath>
      <clipPath
         id="clipPath3563"
         clipPathUnits="userSpaceOnUse">
        <path
           id="path3565"
           d="m 251,49 107,0 0,68 -107,0 0,-68 z"
           inkscape:connector-curvature="0" />
      </clipPath>
      <clipPath
         id="clipPath3567"
         clipPathUnits="userSpaceOnUse">
        <path
           id="path3569"
           d="m 254,67 104,0 0,17 -104,0 0,-17 z"
           inkscape:connector-curvature="0" />
      </clipPath>
      <clipPath
         id="clipPath3571"
         clipPathUnits="userSpaceOnUse">
        <path
           id="path3573"
           d="m 264,83 87,0 0,17 -87,0 0,-17 z"
           inkscape:connector-curvature="0" />
      </clipPath>
      <clipPath
         id="clipPath3575"
         clipPathUnits="userSpaceOnUse">
        <path
           id="path3577"
           d="m 138,49 107,0 0,68 -107,0 0,-68 z"
           inkscape:connector-curvature="0" />
      </clipPath>
      <clipPath
         id="clipPath3579"
         clipPathUnits="userSpaceOnUse">
        <path
           id="path3581"
           d="m 141,67 104,0 0,17 -104,0 0,-17 z"
           inkscape:connector-curvature="0" />
      </clipPath>
      <clipPath
         id="clipPath3583"
         clipPathUnits="userSpaceOnUse">
        <path
           id="path3585"
           d="m 147,83 95,0 0,17 -95,0 0,-17 z"
           inkscape:connector-curvature="0" />
      </clipPath>
      <clipPath
         id="clipPath3587"
         clipPathUnits="userSpaceOnUse">
        <path
           id="path3589"
           d="m 564,162 102,0 0,74 -102,0 0,-74 z"
           inkscape:connector-curvature="0" />
      </clipPath>
      <clipPath
         id="clipPath3591"
         clipPathUnits="userSpaceOnUse">
        <path
           id="path3593"
           d="m 567,183 99,0 0,17 -99,0 0,-17 z"
           inkscape:connector-curvature="0" />
      </clipPath>
      <clipPath
         id="clipPath3595"
         clipPathUnits="userSpaceOnUse">
        <path
           id="path3597"
           d="m 585,199 66,0 0,17 -66,0 0,-17 z"
           inkscape:connector-curvature="0" />
      </clipPath>
      <clipPath
         id="clipPath3599"
         clipPathUnits="userSpaceOnUse">
        <path
           id="path3601"
           d="m 565,49 102,0 0,66 -102,0 0,-66 z"
           inkscape:connector-curvature="0" />
      </clipPath>
      <clipPath
         id="clipPath3603"
         clipPathUnits="userSpaceOnUse">
        <path
           id="path3605"
           d="m 568,66 99,0 0,17 -99,0 0,-17 z"
           inkscape:connector-curvature="0" />
      </clipPath>
      <clipPath
         id="clipPath3607"
         clipPathUnits="userSpaceOnUse">
        <path
           id="path3609"
           d="m 586,82 66,0 0,17 -66,0 0,-17 z"
           inkscape:connector-curvature="0" />
      </clipPath>
      <clipPath
         id="clipPath3611"
         clipPathUnits="userSpaceOnUse">
        <path
           id="path3613"
           d="m 408,162 102,0 0,66 -102,0 0,-66 z"
           inkscape:connector-curvature="0" />
      </clipPath>
      <clipPath
         id="clipPath3615"
         clipPathUnits="userSpaceOnUse">
        <path
           id="path3617"
           d="m 411,179 99,0 0,17 -99,0 0,-17 z"
           inkscape:connector-curvature="0" />
      </clipPath>
      <clipPath
         id="clipPath3619"
         clipPathUnits="userSpaceOnUse">
        <path
           id="path3621"
           d="m 441,195 42,0 0,17 -42,0 0,-17 z"
           inkscape:connector-curvature="0" />
      </clipPath>
      <clipPath
         id="clipPath3623"
         clipPathUnits="userSpaceOnUse">
        <path
           id="path3625"
           d="m 364,49 92,0 0,66 -92,0 0,-66 z"
           inkscape:connector-curvature="0" />
      </clipPath>
      <clipPath
         id="clipPath3627"
         clipPathUnits="userSpaceOnUse">
        <path
           id="path3629"
           d="m 367,66 89,0 0,17 -89,0 0,-17 z"
           inkscape:connector-curvature="0" />
      </clipPath>
      <clipPath
         id="clipPath3631"
         clipPathUnits="userSpaceOnUse">
        <path
           id="path3633"
           d="m 382,82 62,0 0,17 -62,0 0,-17 z"
           inkscape:connector-curvature="0" />
      </clipPath>
      <clipPath
         id="clipPath3635"
         clipPathUnits="userSpaceOnUse">
        <path
           id="path3637"
           d="m 462,49 92,0 0,66 -92,0 0,-66 z"
           inkscape:connector-curvature="0" />
      </clipPath>
      <clipPath
         id="clipPath3639"
         clipPathUnits="userSpaceOnUse">
        <path
           id="path3641"
           d="m 465,66 89,0 0,17 -89,0 0,-17 z"
           inkscape:connector-curvature="0" />
      </clipPath>
      <clipPath
         id="clipPath3643"
         clipPathUnits="userSpaceOnUse">
        <path
           id="path3645"
           d="m 475,82 72,0 0,17 -72,0 0,-17 z"
           inkscape:connector-curvature="0" />
      </clipPath>
      <clipPath
         id="clipPath3647"
         clipPathUnits="userSpaceOnUse">
        <path
           id="path3649"
           d="m -1,-1 699,0 0,264 -699,0 0,-264 z"
           inkscape:connector-curvature="0" />
      </clipPath>
      <clipPath
         id="clipPath3651"
         clipPathUnits="userSpaceOnUse">
        <path
           id="path3653"
           d="m 508,175 19,0 0,15 -19,0 0,-15 z"
           inkscape:connector-curvature="0" />
      </clipPath>
      <clipPath
         id="clipPath3655"
         clipPathUnits="userSpaceOnUse">
        <path
           id="path3657"
           d="m 124,188 19,0 0,15 -19,0 0,-15 z"
           inkscape:connector-curvature="0" />
      </clipPath>
      <clipPath
         id="clipPath3659"
         clipPathUnits="userSpaceOnUse">
        <path
           id="path3661"
           d="m 184,146 15,0 0,19 -15,0 0,-19 z"
           inkscape:connector-curvature="0" />
      </clipPath>
      <clipPath
         id="clipPath3663"
         clipPathUnits="userSpaceOnUse">
        <path
           id="path3665"
           d="m 392,174 19,0 0,15 -19,0 0,-15 z"
           inkscape:connector-curvature="0" />
      </clipPath>
      <clipPath
         id="clipPath3667"
         clipPathUnits="userSpaceOnUse">
        <path
           id="path3669"
           d="m 240,185 19,0 0,15 -19,0 0,-15 z"
           inkscape:connector-curvature="0" />
      </clipPath>
    </defs>
  </defs>
  <flowRoot
     xml:space="preserve"
     id="flowRoot4107"
     style="font-size:20px;font-style:normal;font-weight:normal;line-height:125%;letter-spacing:0px;word-spacing:0px;fill:#000000;fill-opacity:1;stroke:none;font-family:Sans"
     transform="translate(60.196586,-340.17144)"><flowRegion
       id="flowRegion4109"><rect
         id="rect4111"
         width="250.46306"
         height="72.149849"
         x="121.62403"
         y="437.23117" /></flowRegion><flowPara
       id="flowPara4113" /></flowRoot>  <path
     style="fill:none;stroke:#000000;stroke-width:1px;stroke-linecap:butt;stroke-linejoin:miter;stroke-opacity:1"
     d="M 116.54495,87.638083 240.03497,12.946543"
     id="path4473"
     inkscape:connector-curvature="0"
     sodipodi:nodetypes="cc" />
  <g
     id="g3711"
     transform="translate(-17.899827,50.773795)">
    <path
       sodipodi:nodetypes="ccccc"
       inkscape:connector-curvature="0"
       id="rect4459"
       d="m 44.903299,15.437668 183.993061,0 -26,53.993058 -183.993061,0 z"
       style="fill:#ffffff;stroke:#000000;stroke-width:2.00694442;stroke-linecap:butt;stroke-dashoffset:0" />
    <text
       xml:space="preserve"
       style="font-size:12px;font-style:normal;font-weight:normal;text-align:center;line-height:125%;letter-spacing:0px;word-spacing:0px;text-anchor:middle;fill:#000000;fill-opacity:1;stroke:none;font-family:Sans"
       x="120.56877"
       y="31.907829"
       id="text4461"
       sodipodi:linespacing="125%"><tspan
         sodipodi:role="line"
         id="tspan4463"
         x="120.56877"
         y="31.907829">Tonner.ColorTonner</tspan><tspan
         id="tspan4468"
         sodipodi:role="line"
         x="120.56877"
         y="46.907829">implies</tspan><tspan
         id="tspan4470"
         sodipodi:role="line"
         x="120.56877"
         y="61.907829">Connector.Usb3Connector</tspan></text>
  </g>
  <g
     id="g3415"
     transform="translate(-112.82709,0.54128592)">
    <rect
       ry="2.2923236"
       y="-0.15216967"
       x="315.15012"
       height="22.221767"
       width="67.221764"
       id="rect4799"
       style="fill:#ffffff;stroke:#000000;stroke-width:0.77823353;stroke-linecap:butt;stroke-linejoin:miter;stroke-miterlimit:10;stroke-opacity:1;stroke-dasharray:none;stroke-dashoffset:0" />
    <text
       sodipodi:linespacing="125%"
       id="text4130"
       y="15.432347"
       x="328.19751"
       style="font-size:12px;font-style:normal;font-weight:normal;line-height:125%;letter-spacing:0px;word-spacing:0px;fill:#000000;fill-opacity:1;stroke:none;font-family:Sans"
       xml:space="preserve"><tspan
         y="15.432347"
         x="328.19751"
         id="tspan4132"
         sodipodi:role="line">Printer</tspan></text>
  </g>
  <g
     id="g3704"
     transform="translate(-228.03202,54.773795)">
    <path
       style="fill:#ffffff;stroke:#000000;stroke-width:2.00694442;stroke-linecap:butt;stroke-dashoffset:0"
       d="m 514.9033,11.437668 183.99306,0 -26,53.993058 -183.99306,0 z"
       id="path4475"
       inkscape:connector-curvature="0"
       sodipodi:nodetypes="ccccc" />
    <text
       sodipodi:linespacing="125%"
       id="text4477"
       y="27.907829"
       x="590.56879"
       style="font-size:12px;font-style:normal;font-weight:normal;text-align:center;line-height:125%;letter-spacing:0px;word-spacing:0px;text-anchor:middle;fill:#000000;fill-opacity:1;stroke:none;font-family:Sans"
       xml:space="preserve"><tspan
         y="27.907829"
         x="590.56879"
         id="tspan4479"
         sodipodi:role="line">EmergencyPower</tspan><tspan
         y="42.907829"
         x="590.56879"
         sodipodi:role="line"
         id="tspan4481">implies not</tspan><tspan
         y="57.907829"
         x="590.56879"
         sodipodi:role="line"
         id="tspan4483">Connector.WifiConnector</tspan></text>
  </g>
</svg>
